<mxfile host="app.diagrams.net" modified="2024-08-16T07:13:36.976Z" agent="Mozilla/5.0 (Windows NT 10.0; Win64; x64) AppleWebKit/537.36 (KHTML, like Gecko) Chrome/127.0.0.0 Safari/537.36" etag="a9vybTihCYZx6ss-CUsV" version="21.6.9" type="device">
  <diagram id="Ui5sOVj6citz6IWkuLqR" name="第 1 页">
    <mxGraphModel dx="2220" dy="1318" grid="1" gridSize="10" guides="1" tooltips="1" connect="1" arrows="1" fold="1" page="1" pageScale="1" pageWidth="1600" pageHeight="300" background="#A9C4EB" math="0" shadow="0">
      <root>
        <mxCell id="0" />
        <mxCell id="1" parent="0" />
        <mxCell id="2yhWJLSUOvCclqhOJnbZ-6" value="教育学部" style="rounded=0;whiteSpace=wrap;html=1;fontSize=20;" parent="1" vertex="1">
          <mxGeometry x="480" y="150" width="90" height="60" as="geometry" />
        </mxCell>
        <mxCell id="2yhWJLSUOvCclqhOJnbZ-7" value="心理学院" style="rounded=0;whiteSpace=wrap;html=1;fontSize=20;" parent="1" vertex="1">
          <mxGeometry x="570" y="150" width="90" height="60" as="geometry" />
        </mxCell>
        <mxCell id="2yhWJLSUOvCclqhOJnbZ-8" value="文学院" style="rounded=0;whiteSpace=wrap;html=1;fontSize=20;" parent="1" vertex="1">
          <mxGeometry x="660" y="150" width="90" height="60" as="geometry" />
        </mxCell>
        <mxCell id="2yhWJLSUOvCclqhOJnbZ-9" value="地理科学学院" style="rounded=0;whiteSpace=wrap;html=1;fontSize=20;" parent="1" vertex="1">
          <mxGeometry x="1380" y="150" width="90" height="60" as="geometry" />
        </mxCell>
        <mxCell id="2yhWJLSUOvCclqhOJnbZ-10" value="外国语学院" style="rounded=0;whiteSpace=wrap;html=1;fontSize=20;" parent="1" vertex="1">
          <mxGeometry x="840" y="150" width="90" height="60" as="geometry" />
        </mxCell>
        <mxCell id="2yhWJLSUOvCclqhOJnbZ-11" value="马克思主义学部" style="rounded=0;whiteSpace=wrap;html=1;fontSize=20;" parent="1" vertex="1">
          <mxGeometry x="930" y="150" width="90" height="60" as="geometry" />
        </mxCell>
        <mxCell id="2yhWJLSUOvCclqhOJnbZ-12" value="数学与统计学院" style="rounded=0;whiteSpace=wrap;html=1;fontSize=20;" parent="1" vertex="1">
          <mxGeometry x="1020" y="150" width="90" height="60" as="geometry" />
        </mxCell>
        <mxCell id="2yhWJLSUOvCclqhOJnbZ-14" value="生命科学学院" style="rounded=0;whiteSpace=wrap;html=1;fontSize=20;" parent="1" vertex="1">
          <mxGeometry x="1290" y="150" width="90" height="60" as="geometry" />
        </mxCell>
        <mxCell id="2yhWJLSUOvCclqhOJnbZ-15" value="&lt;font style=&quot;font-size: 24px;&quot;&gt;总服务台&lt;/font&gt;" style="rounded=0;whiteSpace=wrap;html=1;fontSize=20;" parent="1" vertex="1">
          <mxGeometry x="70" y="150" width="170" height="60" as="geometry" />
        </mxCell>
        <mxCell id="2yhWJLSUOvCclqhOJnbZ-16" value="&lt;font style=&quot;font-size: 20px;&quot;&gt;绿色通道办理处&lt;/font&gt;" style="rounded=0;whiteSpace=wrap;html=1;fontSize=21;" parent="1" vertex="1">
          <mxGeometry x="240" y="150" width="120" height="60" as="geometry" />
        </mxCell>
        <mxCell id="2yhWJLSUOvCclqhOJnbZ-27" value="2024 年本部摆台示意图" style="text;html=1;resizable=0;autosize=1;align=center;verticalAlign=middle;points=[];fillColor=none;strokeColor=none;rounded=0;fontSize=48;" parent="1" vertex="1">
          <mxGeometry x="535" y="25" width="530" height="70" as="geometry" />
        </mxCell>
        <mxCell id="2yhWJLSUOvCclqhOJnbZ-28" value="" style="endArrow=classic;html=1;rounded=0;fontSize=24;startSize=10;strokeColor=#000000;strokeWidth=4;jumpSize=3;" parent="1" edge="1">
          <mxGeometry width="50" height="50" relative="1" as="geometry">
            <mxPoint x="1424.09" y="110" as="sourcePoint" />
            <mxPoint x="1424.09" y="20" as="targetPoint" />
          </mxGeometry>
        </mxCell>
        <mxCell id="2yhWJLSUOvCclqhOJnbZ-29" value="南" style="text;html=1;resizable=0;autosize=1;align=center;verticalAlign=middle;points=[];fillColor=none;strokeColor=none;rounded=0;fontSize=24;" parent="1" vertex="1">
          <mxGeometry x="1440" y="40" width="50" height="40" as="geometry" />
        </mxCell>
        <mxCell id="vsQ8-shH1Kgp3DYNfaAP-1" value="化学学院" style="rounded=0;whiteSpace=wrap;html=1;fontSize=20;" parent="1" vertex="1">
          <mxGeometry x="1200" y="150" width="90" height="60" as="geometry" />
        </mxCell>
        <mxCell id="-sZBy2OHGM0dHQLzSxyM-23" value="&lt;span style=&quot;font-size: 20px;&quot;&gt;家长休息区&lt;/span&gt;" style="rounded=0;whiteSpace=wrap;html=1;fontSize=20;" parent="1" vertex="1">
          <mxGeometry x="360" y="150" width="120" height="60" as="geometry" />
        </mxCell>
        <mxCell id="-sZBy2OHGM0dHQLzSxyM-24" value="历史文化学院" style="rounded=0;whiteSpace=wrap;html=1;fontSize=20;" parent="1" vertex="1">
          <mxGeometry x="750" y="150" width="90" height="60" as="geometry" />
        </mxCell>
        <mxCell id="-sZBy2OHGM0dHQLzSxyM-25" value="物理学院" style="rounded=0;whiteSpace=wrap;html=1;fontSize=20;" parent="1" vertex="1">
          <mxGeometry x="1110" y="150" width="90" height="60" as="geometry" />
        </mxCell>
        <mxCell id="-sZBy2OHGM0dHQLzSxyM-26" value="&lt;font style=&quot;font-size: 24px;&quot;&gt;作者: Mr.Hope&lt;/font&gt;" style="text;strokeColor=none;align=center;fillColor=none;html=1;verticalAlign=middle;whiteSpace=wrap;rounded=0;" parent="1" vertex="1">
          <mxGeometry x="10" y="260" width="180" height="30" as="geometry" />
        </mxCell>
        <mxCell id="GjLZZkDKQ0zXlH8ejUiz-1" value="体育学院" style="rounded=0;whiteSpace=wrap;html=1;fontSize=20;" vertex="1" parent="1">
          <mxGeometry x="1470" y="150" width="90" height="60" as="geometry" />
        </mxCell>
      </root>
    </mxGraphModel>
  </diagram>
</mxfile>
